<svg width="33" height="32" viewBox="0 0 33 32" fill="none" xmlns="http://www.w3.org/2000/svg">
<g filter="url(#filter0_d_2399_7309)">
<path fill-rule="evenodd" clip-rule="evenodd" d="M18.5989 11.8409C18.6356 9.90986 17.9222 7.85052 16.3645 6.29283C15.8051 5.73343 15.0264 5.26422 14.1962 4.86762C13.353 4.46477 12.3908 4.10626 11.4125 3.79212C9.45568 3.16375 7.36319 2.69043 5.88029 2.39182C4.18126 2.04968 2.70771 3.52314 3.04975 5.22219C3.34828 6.70516 3.82149 8.79778 4.44978 10.7547C4.76388 11.7331 5.12235 12.6953 5.52518 13.5386C5.92175 14.3688 6.39094 15.1476 6.95036 15.707C8.50802 17.2647 10.5674 17.978 12.4985 17.9412L14.0718 19.5145C14.8528 20.2955 16.1192 20.2955 16.9002 19.5145L20.1721 16.2426C20.9532 15.4615 20.9532 14.1952 20.1721 13.4142L18.5989 11.8409Z" fill="white"/>
<path fill-rule="evenodd" clip-rule="evenodd" d="M24.1575 19C24.9859 19 25.6575 19.6715 25.6575 20.5V22H27.1575C27.9859 22 28.6575 22.6715 28.6575 23.5C28.6575 24.3284 27.9859 25 27.1575 25H25.6575V26.5C25.6575 27.3284 24.9859 28 24.1575 28C23.3291 28 22.6575 27.3284 22.6575 26.5V25H21.1575C20.3291 25 19.6575 24.3284 19.6575 23.5C19.6575 22.6715 20.3291 22 21.1575 22H22.6575V20.5C22.6575 19.6715 23.3291 19 24.1575 19Z" fill="white"/>
</g>
<path fill-rule="evenodd" clip-rule="evenodd" d="M16.5424 12.613L16.5814 12.1503C16.7092 10.6329 16.1926 8.94935 14.9503 7.70709C14.6253 7.3821 14.0817 7.02947 13.3341 6.67231C12.5996 6.32142 11.7286 5.99428 10.801 5.6964C9.0671 5.13961 7.19741 4.70468 5.77639 4.41179L10.6415 9.27679C10.9393 9.10075 11.2867 8.99973 11.6577 8.99973C12.7623 8.99973 13.6577 9.89516 13.6577 10.9997C13.6577 12.1043 12.7623 12.9997 11.6577 12.9997C10.5532 12.9997 9.65774 12.1043 9.65774 10.9997C9.65774 10.6289 9.75865 10.2817 9.9345 9.98401L5.06987 5.11947C5.36269 6.54044 5.79744 8.40978 6.35403 10.1434C6.65187 11.0711 6.97898 11.9421 7.32985 12.6766C7.68697 13.4242 8.03959 13.9679 8.36456 14.2928C9.60673 15.535 11.2903 16.0516 12.8078 15.9238L13.2705 15.8848L15.486 18.1003L18.7579 14.8284L16.5424 12.613ZM17.5779 12.2342L19.465 14.1213C19.8555 14.5118 19.8555 15.145 19.465 15.5355L16.1931 18.8074C15.8026 19.198 15.1694 19.198 14.7789 18.8074L12.8917 16.9202C11.1012 17.071 9.12192 16.4644 7.65745 15C5.88867 13.2312 4.62055 7.9581 4.03007 5.02489C3.82908 4.02647 4.68446 3.17114 5.68287 3.37219C8.61593 3.96283 13.8886 5.2312 15.6574 6.99999C17.1219 8.46451 17.7286 10.4438 17.5779 12.2342ZM11.6577 11.9997C12.21 11.9997 12.6577 11.552 12.6577 10.9997C12.6577 10.4474 12.21 9.99973 11.6577 9.99973C11.1055 9.99973 10.6577 10.4474 10.6577 10.9997C10.6577 11.552 11.1055 11.9997 11.6577 11.9997Z" fill="black"/>
<path fill-rule="evenodd" clip-rule="evenodd" d="M24.1575 20C24.4336 20 24.6575 20.2239 24.6575 20.5V23H27.1575C27.4336 23 27.6575 23.2239 27.6575 23.5C27.6575 23.7761 27.4336 24 27.1575 24H24.6575V26.5C24.6575 26.7761 24.4336 27 24.1575 27C23.8814 27 23.6575 26.7761 23.6575 26.5V24H21.1575C20.8814 24 20.6575 23.7761 20.6575 23.5C20.6575 23.2239 20.8814 23 21.1575 23H23.6575V20.5C23.6575 20.2239 23.8814 20 24.1575 20Z" fill="black"/>
<defs>
<filter id="filter0_d_2399_7309" x="0" y="0.342041" width="31.6575" height="31.658" filterUnits="userSpaceOnUse" color-interpolation-filters="sRGB">
<feFlood flood-opacity="0" result="BackgroundImageFix"/>
<feColorMatrix in="SourceAlpha" type="matrix" values="0 0 0 0 0 0 0 0 0 0 0 0 0 0 0 0 0 0 127 0" result="hardAlpha"/>
<feOffset dy="1"/>
<feGaussianBlur stdDeviation="1.5"/>
<feColorMatrix type="matrix" values="0 0 0 0 0 0 0 0 0 0 0 0 0 0 0 0 0 0 0.35 0"/>
<feBlend mode="normal" in2="BackgroundImageFix" result="effect1_dropShadow_2399_7309"/>
<feBlend mode="normal" in="SourceGraphic" in2="effect1_dropShadow_2399_7309" result="shape"/>
</filter>
</defs>
</svg>
