<svg width="33" height="32" viewBox="0 0 33 32" fill="none" xmlns="http://www.w3.org/2000/svg">
<g filter="url(#filter0_d_2399_8367)">
<path fill-rule="evenodd" clip-rule="evenodd" d="M18.5989 11.8408C18.6356 9.90972 17.9222 7.85039 16.3645 6.29269C15.8051 5.73329 15.0264 5.26409 14.1962 4.86749C13.353 4.46464 12.3908 4.10613 11.4125 3.79198C9.45568 3.16361 7.36319 2.6903 5.88029 2.39168C4.18125 2.04954 2.70771 3.523 3.04974 5.22206C3.34828 6.70503 3.82149 8.79765 4.44977 10.7546C4.76387 11.7329 5.12235 12.6952 5.52517 13.5385C5.92174 14.3687 6.39094 15.1475 6.95035 15.7069C8.50802 17.2645 10.5674 17.9779 12.4985 17.9411L14.0718 19.5144C14.8528 20.2954 16.1192 20.2954 16.9002 19.5144L20.1721 16.2425C20.9532 15.4614 20.9532 14.1951 20.1721 13.414L18.5989 11.8408Z" fill="white"/>
</g>
<path fill-rule="evenodd" clip-rule="evenodd" d="M16.5425 12.6128L16.5814 12.1501C16.7092 10.6327 16.1926 8.94916 14.9503 7.70691C14.6253 7.38191 14.0817 7.02928 13.3341 6.67213C12.5996 6.32123 11.7286 5.99409 10.801 5.69621C9.0671 5.13942 7.19742 4.7045 5.7764 4.4116L10.6415 9.27661C10.9393 9.10057 11.2867 8.99954 11.6577 8.99954C12.7623 8.99954 13.6577 9.89497 13.6578 10.9995C13.6577 12.1041 12.7623 12.9995 11.6577 12.9995C10.5532 12.9995 9.65775 12.1041 9.65775 10.9995C9.65775 10.6287 9.75866 10.2815 9.93451 9.98382L5.06987 5.11928C5.36269 6.54025 5.79745 8.40959 6.35404 10.1432C6.65187 11.0709 6.97898 11.9419 7.32985 12.6764C7.68698 13.424 8.03959 13.9677 8.36457 14.2927C9.60673 15.5348 11.2903 16.0514 12.8078 15.9236L13.2705 15.8846L13.5988 16.2129L15.486 18.1001L18.7579 14.8282L16.8708 12.9411L16.5425 12.6128ZM17.5779 12.234L19.465 14.1211C19.8555 14.5117 19.8555 15.1448 19.465 15.5353L16.1931 18.8073C15.8026 19.1978 15.1694 19.1978 14.7789 18.8073L12.8917 16.9201C11.1012 17.0708 9.12192 16.4642 7.65746 14.9998C5.88868 13.231 4.62056 7.95791 4.03008 5.02471C3.82908 4.02628 4.68447 3.17095 5.68288 3.372C8.61594 3.96264 13.8886 5.23101 15.6574 6.9998C17.122 8.46432 17.7286 10.4436 17.5779 12.234ZM11.6577 11.9995C12.21 11.9995 12.6578 11.5518 12.6577 10.9995C12.6577 10.4473 12.21 9.99954 11.6577 9.99954C11.1055 9.99954 10.6577 10.4473 10.6577 10.9995C10.6577 11.5518 11.1055 11.9995 11.6577 11.9995Z" fill="black"/>
<defs>
<filter id="filter0_d_2399_8367" x="0" y="0.341797" width="23.7579" height="23.7583" filterUnits="userSpaceOnUse" color-interpolation-filters="sRGB">
<feFlood flood-opacity="0" result="BackgroundImageFix"/>
<feColorMatrix in="SourceAlpha" type="matrix" values="0 0 0 0 0 0 0 0 0 0 0 0 0 0 0 0 0 0 127 0" result="hardAlpha"/>
<feOffset dy="1"/>
<feGaussianBlur stdDeviation="1.5"/>
<feColorMatrix type="matrix" values="0 0 0 0 0 0 0 0 0 0 0 0 0 0 0 0 0 0 0.35 0"/>
<feBlend mode="normal" in2="BackgroundImageFix" result="effect1_dropShadow_2399_8367"/>
<feBlend mode="normal" in="SourceGraphic" in2="effect1_dropShadow_2399_8367" result="shape"/>
</filter>
</defs>
</svg>
